<svg width="32" height="32" viewBox="0 0 32 32" fill="none" xmlns="http://www.w3.org/2000/svg">
<path d="M14.4026 26.3369L14.4019 26.3363C10.9585 23.2138 8.14085 20.6582 6.17804 18.2584C4.22097 15.8657 3.16602 13.6891 3.16602 11.3333C3.16602 7.50281 6.16882 4.5 9.99935 4.5C12.168 4.5 14.2571 5.51197 15.6187 7.11084L15.9993 7.55787L16.38 7.11084C17.7416 5.51197 19.8307 4.5 21.9993 4.5C25.8299 4.5 28.8327 7.50281 28.8327 11.3333C28.8327 13.6891 27.7777 15.8658 25.8205 18.2602C23.8626 20.6557 21.0542 23.2078 17.6226 26.3262L17.5975 26.349L17.5964 26.35L16.0006 27.7917L14.4026 26.3369Z" fill="white" stroke="#DBDBDB"/>
</svg>
